<svg xmlns="http://www.w3.org/2000/svg" width="335" height="224" viewBox="0 0 335 224" fill="none"><path fill-rule="evenodd" clip-rule="evenodd" d="M0 183.553H334.394V223.577H0V183.553Z" fill="#121A36"></path><path fill-rule="evenodd" clip-rule="evenodd" d="M108.31 62.1539L148.855 0L266.881 174.787H182.777L108.31 62.1539Z" fill="#EBEAEA"></path><path fill-rule="evenodd" clip-rule="evenodd" d="M146.123 174.786L163.037 174.523L81.2514 51.9734L2.50916 174.786H14.7247" fill="#EBEAEA"></path><path fill-rule="evenodd" clip-rule="evenodd" d="M9.40164 172.637H29.1519C40.8553 172.637 43.1868 168.157 44.5134 155.128H46.6611C46.4788 157.094 46.3424 159.791 46.3424 162.809C46.3424 165.14 46.5707 170.032 47.0272 174.786C40.0786 174.512 30.5229 174.512 23.7108 174.512C16.3042 174.512 7.70899 174.512 0.578125 174.786V172.912L39.6207 110.643H19.9623C8.25885 110.643 5.92591 115.124 4.60082 128.154H2.45164C2.63541 126.188 2.72586 123.491 2.72586 120.473C2.72586 118.141 2.54353 113.25 2.08556 108.495C8.98959 108.769 18.5453 108.769 25.4034 108.769C32.4898 108.769 41.3133 108.769 48.124 108.495V110.369L9.40164 172.637Z" fill="#121A36"></path><path fill-rule="evenodd" clip-rule="evenodd" d="M104.813 174.787C98.4588 174.512 89.6352 174.512 83.3715 174.512C77.748 174.512 65.4043 174.512 56.2147 174.787V172.912C62.5689 172.637 63.8036 171.678 63.8036 164.866V118.416C63.8036 111.604 62.5689 110.643 56.2147 110.369V108.495C65.4043 108.77 77.748 108.77 83.3715 108.77C89.0868 108.77 97.1337 108.77 102.938 108.495C102.481 112.884 102.299 117.409 102.299 119.559C102.299 121.798 102.391 123.947 102.573 125.366H100.424C99.1895 114.301 97.7725 110.643 87.8522 110.643H80.0796C73.7253 110.643 72.4907 111.604 72.4907 118.416V140.498H78.7085C86.8458 140.498 86.6634 132.634 87.3942 128.154H89.5433C89.2691 132.132 89.2232 134.83 89.2232 136.977C89.2232 138.714 89.2692 140.087 89.2692 141.458C89.2692 144.522 89.3596 147.63 89.8176 154.762H87.6684C86.9377 148.773 86.8458 142.373 78.7085 142.373H72.4907V164.866C72.4907 171.678 73.7253 172.637 80.0796 172.637H86.9377C98.6411 172.637 100.973 168.432 102.299 156.041H104.448C104.265 157.734 104.173 160.202 104.173 162.809C104.173 165.14 104.356 170.032 104.813 174.787V174.787Z" fill="#121A36"></path><path fill-rule="evenodd" clip-rule="evenodd" d="M172.018 110.369C165.662 110.643 164.429 112.518 164.429 119.376V175.243H162.28L122.961 114.484V163.906C122.961 170.763 124.196 172.637 131.466 172.912V174.787C129.225 174.604 125.111 174.512 121.911 174.512C118.756 174.512 115.282 174.604 113.225 174.787V172.912C119.579 172.637 120.814 170.763 120.814 163.906V118.416C120.814 111.604 119.579 110.643 113.225 110.369V108.495C115.282 108.678 118.756 108.77 121.911 108.77C124.654 108.77 127.168 108.678 129.225 108.495L162.28 159.425V119.376C162.28 112.518 161.091 110.643 153.776 110.369V108.495C156.017 108.678 160.13 108.77 163.331 108.77C166.486 108.77 169.962 108.678 172.018 108.495L172.018 110.369Z" fill="#121A36"></path><path fill-rule="evenodd" clip-rule="evenodd" d="M203.196 110.369C196.84 110.643 195.606 111.604 195.606 118.416V164.866C195.606 171.678 196.84 172.637 203.196 172.912V174.787C200.315 174.604 195.606 174.512 191.309 174.512C186.462 174.512 181.935 174.604 179.33 174.787V172.912C185.685 172.637 186.92 171.678 186.92 164.866V118.416C186.92 111.604 185.685 110.643 179.33 110.369V108.495C181.935 108.678 186.462 108.77 191.309 108.77C195.606 108.77 200.315 108.678 203.196 108.495V110.369Z" fill="#121A36"></path><path fill-rule="evenodd" clip-rule="evenodd" d="M261.899 120.473C261.899 123.491 261.989 126.188 262.173 128.154H260.024C258.697 115.124 257.326 110.643 245.623 110.643H240.548V163.906C240.548 171.495 242.148 172.637 250.011 172.912V174.787C246.72 174.604 241.326 174.512 236.249 174.512C230.626 174.512 225.369 174.604 222.398 174.787V172.912C230.261 172.637 231.862 171.495 231.862 163.906V110.643H226.787C215.082 110.643 213.665 115.124 212.385 128.154H210.235C210.419 126.188 210.511 123.491 210.511 120.473C210.511 118.142 210.329 113.25 209.825 108.495C217.597 108.77 228.57 108.77 236.249 108.77C243.932 108.77 254.766 108.77 262.539 108.495C262.081 113.25 261.899 118.142 261.899 120.473H261.899Z" fill="#121A36"></path><path fill-rule="evenodd" clip-rule="evenodd" d="M332.21 110.369C325.855 110.643 324.622 111.604 324.622 118.416V164.866C324.622 171.678 325.855 172.637 332.21 172.912V174.787C329.605 174.604 325.125 174.512 320.231 174.512C315.934 174.512 311.271 174.604 308.346 174.787V172.912C314.701 172.637 315.934 171.678 315.934 164.866V142.373H285.486V164.866C285.486 171.678 286.722 172.637 293.076 172.912V174.787C290.196 174.604 285.486 174.512 281.189 174.512C276.342 174.512 271.817 174.604 269.21 174.787V172.912C275.565 172.637 276.801 171.678 276.801 164.866V118.416C276.801 111.604 275.565 110.643 269.21 110.369V108.495C271.817 108.678 276.342 108.77 281.189 108.77C285.486 108.77 290.196 108.678 293.076 108.495V110.369C286.722 110.643 285.486 111.604 285.486 118.416V140.498H315.934V118.416C315.934 111.604 314.701 110.643 308.346 110.369V108.495C311.271 108.678 315.934 108.77 320.231 108.77C325.125 108.77 329.605 108.678 332.21 108.495V110.369Z" fill="#121A36"></path><path fill-rule="evenodd" clip-rule="evenodd" d="M20.9701 211.304C20.9701 213.649 21.5228 213.981 24.2304 214.074V214.722C23.1121 214.659 21.2385 214.627 19.4899 214.627C17.8203 214.627 16.2612 214.659 15.3624 214.722V214.074C17.5518 213.981 17.9782 213.649 17.9782 211.304V195.3C17.9782 192.953 17.5518 192.623 15.3624 192.53V191.882C16.2612 191.945 17.8834 191.978 19.3019 191.978C21.3333 191.978 23.3963 191.915 24.1673 191.915C29.3658 191.915 31.9485 194.529 31.9485 198.277C31.9485 201.396 30.1382 205.492 23.4595 205.492H20.9701L20.9701 211.304ZM20.9709 195.301V204.846H23.1445C27.7128 204.846 28.7206 201.916 28.7206 198.624C28.7206 194.561 27.272 192.53 23.3656 192.53C21.3973 192.53 20.9709 193.08 20.9709 195.301L20.9709 195.301Z" fill="#EBEAEA"></path><path fill-rule="evenodd" clip-rule="evenodd" d="M60.6421 213.114C59.7276 214.438 58.9251 215.178 57.1923 215.178C55.57 215.178 54.341 214.438 53.7266 211.681L53.0188 208.468C52.4043 205.728 51.932 203.886 49.3794 203.886H46.3086V211.304C46.3086 213.649 46.7335 213.981 48.9229 214.074V214.722C47.9309 214.659 46.3086 214.627 44.827 214.627C43.1573 214.627 41.5982 214.659 40.7009 214.722V214.074C42.8903 213.981 43.3152 213.649 43.3152 211.304V195.3C43.3152 192.953 42.8903 192.623 40.7009 192.53V191.882C41.5982 191.945 43.2205 191.978 44.6389 191.978C46.6704 191.978 48.7334 191.915 49.5058 191.915C54.7028 191.915 57.287 194.372 57.287 197.521C57.287 199.758 55.8844 202.971 51.0175 203.726L51.4109 203.789C54.2779 204.262 55.3173 205.366 55.9318 208.043L56.7357 211.335C57.1291 213.209 57.4909 213.981 58.3896 213.981C59.1763 213.981 59.5539 213.509 60.1526 212.752L60.6421 213.114ZM46.3094 195.3V203.238H48.483C53.0498 203.238 54.0591 200.845 54.0591 197.883C54.0591 194.498 52.6091 192.53 48.7027 192.53C46.7344 192.53 46.3094 193.079 46.3094 195.3Z" fill="#EBEAEA"></path><path fill-rule="evenodd" clip-rule="evenodd" d="M84.8125 214.722C82.6232 214.627 79.5839 214.627 77.4261 214.627C75.488 214.627 71.2356 214.627 68.0699 214.722V214.075C70.2593 213.981 70.6843 213.65 70.6843 211.304V195.301C70.6843 192.953 70.2593 192.623 68.0699 192.53V191.882C71.2356 191.979 75.488 191.979 77.4261 191.979C79.3944 191.979 82.1666 191.979 84.1665 191.882C84.01 193.396 83.9468 194.955 83.9468 195.695C83.9468 196.466 83.9784 197.206 84.0416 197.695H83.3008C82.8758 193.884 82.3877 192.623 78.9694 192.623H76.2919C74.1026 192.623 73.6776 192.953 73.6776 195.301V202.908H75.8196C78.622 202.908 78.5603 200.199 78.8115 198.656H79.5523C79.4576 200.025 79.4417 200.956 79.4417 201.695C79.4417 202.294 79.4575 202.766 79.4575 203.238C79.4575 204.295 79.4891 205.366 79.647 207.822H78.9062C78.6536 205.759 78.622 203.554 75.8196 203.554H73.6776V211.304C73.6776 213.65 74.1025 213.981 76.2919 213.981H78.6536C82.6863 213.981 83.4903 212.531 83.9468 208.263H84.6876C84.6244 208.847 84.5929 209.697 84.5929 210.595C84.5929 211.399 84.656 213.084 84.8125 214.722Z" fill="#EBEAEA"></path><path fill-rule="evenodd" clip-rule="evenodd" d="M99.7856 211.304C99.7856 213.649 100.337 213.981 103.046 214.074V214.722C101.928 214.659 100.054 214.627 98.3055 214.627C96.6358 214.627 95.0767 214.659 94.178 214.722V214.074C96.3673 213.981 96.7937 213.649 96.7937 211.304V195.3C96.7937 192.953 96.3673 192.623 94.178 192.53V191.882C95.0767 191.945 96.699 191.978 98.116 191.978C100.149 191.978 102.212 191.915 102.983 191.915C108.181 191.915 110.764 194.529 110.764 198.277C110.764 201.396 108.952 205.492 102.275 205.492H99.7856L99.7856 211.304ZM99.7865 195.3V204.846H101.96C106.528 204.846 107.536 201.916 107.536 198.624C107.536 194.561 106.088 192.53 102.181 192.53C100.213 192.53 99.7865 193.079 99.7865 195.3V195.3Z" fill="#EBEAEA"></path><path fill-rule="evenodd" clip-rule="evenodd" d="M149.034 212.013C149.68 213.65 150.595 214.044 151.272 214.075V214.722C150.389 214.659 149.034 214.627 147.807 214.627C146.137 214.627 144.594 214.659 143.679 214.722V214.075C145.238 214.011 145.963 213.776 145.963 212.879C145.963 212.501 145.837 212.013 145.586 211.367L143.602 206.074H135.82L134.497 209.492C134.056 210.61 133.851 211.477 133.851 212.139C133.851 213.539 134.813 214.029 136.655 214.075V214.722C135.426 214.659 134.072 214.627 132.938 214.627C131.851 214.627 131.173 214.659 130.527 214.722V214.075C131.363 213.886 132.323 213.209 133.064 211.272L140.656 191.726H141.175L149.034 212.013ZM139.758 195.806L136.056 205.429H143.365L139.758 195.806Z" fill="#EBEAEA"></path><path fill-rule="evenodd" clip-rule="evenodd" d="M175.127 193.522C175.363 193.71 175.568 193.805 175.758 193.805C176.198 193.805 176.465 193.206 176.576 191.882H177.317C177.222 193.459 177.19 195.553 177.19 199.302H176.45C175.993 196.561 175.74 195.695 174.827 194.53C173.474 192.781 171.346 192.009 169.126 192.009C164.92 192.009 162.149 196.371 162.149 203.365C162.149 210.563 165.283 214.533 169.441 214.533C171.377 214.533 173.741 213.825 174.954 212.076C175.898 210.816 176.119 209.587 176.45 206.972H177.19C177.19 210.879 177.222 213.084 177.317 214.722H176.576C176.465 213.398 176.244 212.815 175.789 212.815C175.616 212.815 175.394 212.91 175.127 213.084C173.537 214.201 171.93 215.179 169.157 215.179C163.031 215.179 158.935 210.879 158.935 203.491C158.935 196.278 163.189 191.426 169.188 191.426C172.025 191.426 173.709 192.434 175.127 193.522Z" fill="#EBEAEA"></path><path fill-rule="evenodd" clip-rule="evenodd" d="M204.169 212.013C204.814 213.65 205.728 214.044 206.406 214.075V214.722C205.524 214.659 204.169 214.627 202.94 214.627C201.271 214.627 199.727 214.659 198.814 214.722V214.075C200.373 214.011 201.098 213.776 201.098 212.879C201.098 212.501 200.972 212.013 200.719 211.367L198.735 206.074H190.954L189.632 209.492C189.19 210.61 188.986 211.477 188.986 212.139C188.986 213.539 189.946 214.029 191.789 214.075V214.722C190.561 214.659 189.205 214.627 188.071 214.627C186.984 214.627 186.308 214.659 185.662 214.722V214.075C186.496 213.886 187.458 213.209 188.197 211.272L195.789 191.726H196.309L204.169 212.013ZM194.892 195.806L191.191 205.429H198.499L194.892 195.806Z" fill="#EBEAEA"></path><path fill-rule="evenodd" clip-rule="evenodd" d="M233.571 203.05C233.571 210.075 229.319 214.722 221.9 214.722C220.923 214.722 218.766 214.627 217.379 214.627C215.867 214.627 214.276 214.659 213.379 214.722V214.074C215.568 213.981 215.993 213.649 215.993 211.304V195.3C215.993 192.953 215.568 192.623 213.379 192.53V191.882C214.118 191.931 215.332 191.993 216.529 191.993C216.797 191.993 217.049 191.978 217.316 191.978C218.797 191.945 220.955 191.882 222.184 191.882C229.87 191.882 233.571 195.852 233.571 203.05V203.05ZM218.988 195.237V211.367C218.988 213.619 219.412 214.138 221.412 214.138C228.437 214.138 230.344 210.201 230.344 203.176C230.344 195.947 228.059 192.467 221.381 192.467C219.412 192.467 218.988 193.016 218.988 195.237H218.988Z" fill="#EBEAEA"></path><path fill-rule="evenodd" clip-rule="evenodd" d="M259.634 214.722C257.443 214.627 254.404 214.627 252.246 214.627C250.308 214.627 246.055 214.627 242.89 214.722V214.075C245.079 213.981 245.504 213.65 245.504 211.304V195.301C245.504 192.953 245.079 192.623 242.89 192.53V191.882C246.055 191.979 250.308 191.979 252.246 191.979C254.214 191.979 256.987 191.979 258.986 191.882C258.83 193.396 258.767 194.955 258.767 195.695C258.767 196.466 258.798 197.206 258.862 197.695H258.121C257.696 193.884 257.208 192.623 253.789 192.623H251.112C248.923 192.623 248.498 192.953 248.498 195.301V202.908H250.64C253.442 202.908 253.38 200.199 253.631 198.656H254.372C254.277 200.025 254.262 200.956 254.262 201.695C254.262 202.294 254.277 202.766 254.277 203.238C254.277 204.295 254.309 205.366 254.467 207.822H253.726C253.474 205.759 253.442 203.554 250.64 203.554H248.498V211.304C248.498 213.65 248.923 213.981 251.112 213.981H253.474C257.506 213.981 258.31 212.531 258.767 208.263H259.508C259.444 208.847 259.413 209.697 259.413 210.595C259.413 211.399 259.476 213.084 259.634 214.722H259.634Z" fill="#EBEAEA"></path><path fill-rule="evenodd" clip-rule="evenodd" d="M294.39 192.53C292.201 192.623 291.776 192.953 291.776 195.301V211.304C291.776 213.65 292.201 213.981 294.39 214.075V214.722C293.382 214.659 291.776 214.627 290.294 214.627C288.61 214.627 287.065 214.659 286.168 214.722V214.075C288.357 213.981 288.767 213.65 288.767 211.304V194.04L281.003 214.879H280.481L272.354 193.947V210.972C272.354 213.335 272.781 213.981 275.284 214.075V214.722C274.512 214.659 273.095 214.627 271.992 214.627C270.906 214.627 269.708 214.659 268.999 214.722V214.075C271.189 213.981 271.615 213.335 271.615 210.972V195.301C271.615 192.953 271.189 192.623 268.999 192.53V191.882C269.708 191.946 270.906 191.979 271.992 191.979C272.939 191.979 274.04 191.946 274.749 191.882L281.837 210.595L288.767 191.979H290.294C291.776 191.979 293.382 191.946 294.39 191.882L294.39 192.53Z" fill="#EBEAEA"></path><path fill-rule="evenodd" clip-rule="evenodd" d="M321.181 191.882V192.53C320.347 192.718 319.575 193.489 318.599 195.395L313.542 205.429V211.304C313.542 213.65 313.952 213.981 316.158 214.075V214.722C315.149 214.659 313.542 214.627 312.062 214.627C310.377 214.627 308.833 214.659 307.92 214.722V214.075C310.124 213.981 310.535 213.65 310.535 211.304V206.437L303.998 194.372C303.117 192.781 302.581 192.56 302.123 192.56V191.882C302.959 191.946 303.856 191.979 304.959 191.979C306.377 191.979 308.093 191.979 309.479 191.882V192.56C308.251 192.56 307.211 192.843 307.211 193.805C307.211 194.103 307.306 194.466 307.541 194.923L312.912 205.208L317.024 197.018C317.622 195.806 317.905 194.907 317.905 194.245C317.905 192.969 316.85 192.576 315.056 192.53V191.882C316.283 191.946 317.638 191.979 318.772 191.979C319.859 191.979 320.535 191.946 321.181 191.882H321.181Z" fill="#EBEAEA"></path></svg>