<svg xmlns="http://www.w3.org/2000/svg" width="267" height="32" viewBox="0 0 267 32" fill="none"><path fill-rule="evenodd" clip-rule="evenodd" d="M0 8.61633V19.8863H1.44739V8.61633H0ZM4.24541 19.8861H5.70715V15.0197C5.70131 14.7876 5.73353 14.5561 5.8025 14.3345C6.06001 13.4532 6.8596 12.844 7.77342 12.8328C9.15411 12.8328 9.63659 13.9195 9.63659 15.2286V19.8861H11.1012V15.0523C11.1012 12.2731 9.37056 11.6071 8.2559 11.6071C7.15492 11.5771 6.12834 12.1637 5.59082 13.1299H5.55745L5.47449 11.7882H4.17676C4.22634 12.459 4.24351 13.1423 4.24351 13.9789L4.24541 19.8861ZM13.6292 19.8861H15.0938V15.0196C15.088 14.7875 15.1202 14.556 15.1891 14.3344C15.446 13.4551 16.2426 12.8464 17.1543 12.8327C18.535 12.8327 19.0175 13.9195 19.0175 15.2285V19.8861H20.4821V15.0522C20.4821 12.273 18.7514 11.607 17.6368 11.607C16.537 11.5779 15.5119 12.164 14.9746 13.1288H14.9412L14.8583 11.7872H13.5605C13.6101 12.458 13.6273 13.1413 13.6273 13.9779L13.6292 19.8861ZM26.4245 11.6067C25.3086 11.585 24.236 12.0409 23.4742 12.8609C22.7125 13.6808 22.3333 14.7874 22.4312 15.9049C22.3425 16.9845 22.7108 18.0516 23.4455 18.8442C24.1802 19.6368 25.2133 20.0814 26.291 20.0689C27.4094 20.0941 28.4856 19.6398 29.2507 18.8196C30.0159 17.9995 30.3976 16.8908 30.3006 15.7707C30.3942 14.6868 30.0251 13.614 29.2854 12.8197C28.5456 12.0254 27.5049 11.5845 26.4226 11.6068L26.4245 11.6067ZM26.3912 12.7121C28.1218 12.7121 28.8036 14.4515 28.8036 15.8228C28.8036 17.6437 27.7547 18.9671 26.3579 18.9671C24.9276 18.9671 23.9121 17.6255 23.9121 15.8564C23.9102 14.3173 24.6587 12.7111 26.3893 12.7111L26.3912 12.7121ZM31.1836 11.7905L34.2424 19.8846H35.6403L38.8011 11.7905H37.2708L35.7108 16.3388C35.4562 17.0206 35.2288 17.7125 35.0291 18.4126H34.9795C34.7991 17.7104 34.5824 17.0182 34.3302 16.3388L32.7454 11.7905H31.1836ZM46.0568 19.8845C45.9574 19.243 45.9127 18.5941 45.9233 17.9449V14.9175C45.9233 13.295 45.3245 11.6064 42.8616 11.6064C41.9302 11.5935 41.0137 11.8425 40.2156 12.3252L40.5484 13.295C41.1789 12.9036 41.905 12.6953 42.6461 12.6932C43.1527 12.6363 43.6573 12.8165 44.0146 13.182C44.3719 13.5474 44.5423 14.0576 44.4768 14.5658V14.7325C41.3655 14.7162 39.6349 15.7867 39.6349 17.7427C39.6278 18.3884 39.8904 19.0076 40.359 19.4495C40.8275 19.8915 41.459 20.1157 42.0997 20.0676C43.0635 20.0883 43.9784 19.6422 44.5588 18.8687H44.6084L44.7247 19.8884L46.0568 19.8845ZM44.5088 17.1596C44.5056 17.3192 44.4776 17.4773 44.4258 17.6282C44.1405 18.4575 43.3534 19.0055 42.4807 18.9824C42.1037 19.009 41.734 18.8691 41.4683 18.599C41.2026 18.3291 41.0674 17.9559 41.098 17.5774C41.098 16.0058 42.9097 15.7211 44.5088 15.7566L44.5088 17.1596ZM48.7041 9.85054V11.7902H47.4531V12.9105H48.7013V17.3265C48.6194 18.0757 48.8213 18.8285 49.2667 19.4349C49.6784 19.8634 50.256 20.0896 50.8476 20.054C51.2888 20.0681 51.7287 20.0002 52.1453 19.8537L52.0786 18.7497C51.8011 18.8189 51.5158 18.8511 51.23 18.8455C50.4147 18.8455 50.1315 18.2772 50.1315 17.2738V12.9096H52.2292V11.7893H50.1315V9.46434L48.7041 9.85054ZM60.3995 16.1064C60.4301 15.8792 60.4467 15.6504 60.4491 15.4211C60.4491 13.9328 59.7502 11.6079 57.1213 11.6079C54.7757 11.6079 53.3445 13.5313 53.3445 15.9722C53.249 17.0632 53.6317 18.1419 54.3926 18.9259C55.1535 19.71 56.2168 20.1215 57.3044 20.0528C58.2224 20.0771 59.1351 19.9063 59.9828 19.5516L59.733 18.4974C59.0287 18.7968 58.2681 18.9394 57.5037 18.9152C56.7488 18.9726 56.007 18.6939 55.4746 18.153C54.9423 17.612 54.6731 16.8634 54.7385 16.1054L60.3995 16.1064ZM54.7588 15.052C54.7775 13.7893 55.7522 12.7498 57.0053 12.6562C57.6046 12.6656 58.1709 12.9339 58.5595 13.3926C58.9481 13.8512 59.1215 14.4558 59.0353 15.052L54.7588 15.052ZM67.9021 8.01172V12.8446H67.8687C67.3414 12.0206 66.4121 11.5474 65.4392 11.6074C63.4759 11.6074 61.8158 13.2634 61.8282 15.9554C61.8282 18.4135 63.3252 20.0695 65.2723 20.0695C66.4149 20.1133 67.4817 19.4959 68.0175 18.4806H68.0508L68.1176 19.8855H69.4325C69.3829 19.3335 69.3657 18.5141 69.3657 17.7954V8.01172H67.9021ZM67.9026 16.4901C67.9068 16.7039 67.8844 16.9174 67.8358 17.1255C67.6218 18.1462 66.7273 18.8778 65.6895 18.8812C64.1085 18.8812 63.3057 17.5271 63.3057 15.8873C63.3057 14.0981 64.2039 12.7603 65.7181 12.7603C66.7348 12.7561 67.6158 13.4674 67.8311 14.4661C67.8779 14.669 67.9003 14.8769 67.8978 15.0852L67.9026 16.4901ZM76.8219 19.8845L76.8887 18.5429H76.9383C77.4647 19.5349 78.517 20.129 79.6339 20.0647C81.4313 20.0647 83.2449 18.6272 83.2449 15.733C83.2611 13.2749 81.847 11.6026 79.8503 11.6026C78.7304 11.544 77.6715 12.1181 77.1051 13.0909H77.0718V8.01172H75.6234V17.7935C75.6234 18.5122 75.59 19.3316 75.5566 19.8836L76.8219 19.8845ZM77.0713 15.19C77.0779 14.987 77.1057 14.7853 77.1542 14.5882C77.3977 13.544 78.3147 12.7987 79.3816 12.7779C80.9454 12.7779 81.7778 14.1656 81.7778 15.788C81.7778 17.6443 80.8625 18.8988 79.3321 18.8988C78.2931 18.8988 77.3882 18.1869 77.1389 17.1735C77.0994 16.9979 77.077 16.8189 77.0722 16.639L77.0713 15.19ZM84.0596 11.7953L87.0374 19.2531C87.0887 19.3751 87.1208 19.5044 87.1327 19.6364C87.1148 19.7593 87.0754 19.878 87.0164 19.9871C86.7384 20.6221 86.3169 21.1832 85.7854 21.6259C85.4077 21.9454 84.9727 22.1893 84.5039 22.3446L84.8739 23.5809C85.5452 23.4253 86.1646 23.0966 86.6712 22.6273C87.6696 21.7581 88.3876 20.336 89.4364 17.5606L91.6295 11.7915H90.082L88.4848 16.541C88.2855 17.1265 88.1187 17.7446 87.969 18.2296H87.9356C87.7791 17.6728 87.6071 17.1206 87.4198 16.5736L85.6558 11.7905L84.0596 11.7953Z" fill="black"></path><path d="M232.783 31.8334L106 31.8406V29.8616L232.691 29.8496L232.783 31.8334Z" fill="url(#paint0_linear_1801_15718)"></path><path d="M231.551 7.9254V4.00586H213.129V27.0453H231.545V23.0635H217.358V17.5177H229.098V13.5239H217.348V7.9242H231.55L231.551 7.9254Z" fill="black"></path><path d="M143.072 27.0454H147.297V18.2794H159.062V14.2797H147.316V8.16983H161.518V4H143.072V27.043V27.0454Z" fill="black"></path><path d="M132.894 21.0597C128.556 15.6301 124.218 10.1992 119.873 4.77438L119.857 4.75402C119.783 4.66301 119.71 4.5708 119.637 4.47978C119.599 4.43188 119.556 4.38039 119.511 4.33009L119.214 3.96484L118.208 3.96844C117.595 3.96005 116.978 3.97442 116.348 3.97442V27.0462H120.592V11.8506C120.866 12.1811 121.029 12.3728 121.186 12.5691C124.822 17.127 128.455 21.6872 132.099 26.2378L132.239 26.4115L132.781 27.0893H134.691V27.0881C135.653 27.0929 136.634 27.0857 137.671 27.0857C137.476 26.8174 137.361 26.6474 137.234 26.4869C135.788 24.6763 134.342 22.868 132.895 21.0585L132.894 21.0597Z" fill="black"></path><path d="M171.071 3.96484H166.877V27.0055H182.969V23.0225H171.071V3.96484Z" fill="black"></path><path d="M106 27.0551H110.173V3.99414H106V27.0551Z" fill="black"></path><path d="M189.694 18.2051C189.709 13.7335 189.698 9.26065 189.698 4.78905V4.00586H185.395H185.362L185.364 4.78785C185.362 9.10138 185.325 13.4161 185.379 17.7296C185.424 21.2061 186.894 24.0155 189.673 26.0956C191.392 27.383 193.354 28.0033 195.659 28.08C195.442 27.9327 195.362 27.8716 195.276 27.8225C191.552 25.7076 189.678 22.5162 189.694 18.2039V18.2051Z" fill="black"></path><path d="M137.214 21.5633V4.00977H132.999C132.996 6.78087 133.002 13.9865 133.005 16.3217L137.214 21.5633Z" fill="black"></path><path d="M207.06 4.00555H202.733C202.733 4.30972 202.733 4.5612 202.733 4.81149C202.733 8.79091 202.746 12.7715 202.728 16.7509C202.714 20.1975 200.38 22.662 196.941 22.8716C196.091 22.9231 195.236 22.8788 194.453 22.8788C196.338 25.7109 201.161 27.2438 204.517 23.7889C206.4 21.8489 207.077 19.4262 207.09 16.7869C207.109 12.7895 207.096 8.79091 207.094 4.79233L207.1 4.00195H207.06V4.00555Z" fill="black"></path><path d="M263.725 27.919L248.374 2.96253C248.298 2.84514 246.492 0.0518426 243.331 0.0518426H233.184C232.92 0.036271 232.754 0.0518426 232.723 0.0518426L232.799 2.03303H233.18C233.85 2.07375 235.447 2.34446 236.478 4.01421L252.013 29.2318L252.023 29.2521C252.095 29.3599 253.743 31.8406 256.995 31.8406H266.908L267 29.8594C267 29.8594 264.748 29.6139 263.722 27.9142L263.727 27.919H263.725ZM253.675 28.1741L238.151 2.96732C237.933 2.61516 237.7 2.30852 237.456 2.03303H238.283C238.364 2.03303 240.328 1.98751 241.459 3.82016L256.729 28.6077C256.821 28.7814 257.11 29.2917 257.638 29.8534H256.988C254.862 29.8534 253.751 28.2867 253.669 28.1681L253.674 28.1729L253.675 28.1741ZM262.34 29.8594C259.591 29.8546 258.525 27.7764 258.485 27.695L258.465 27.6495L243.143 2.78525C242.975 2.50976 242.793 2.2642 242.605 2.045H243.336C245.354 2.045 246.648 3.92916 246.72 4.03577L262.051 28.9623C262.253 29.2988 262.486 29.6007 262.735 29.8666H262.35L262.339 29.8618L262.34 29.8594Z" fill="url(#paint1_linear_1801_15718)"></path><path d="M266.549 0.0482491H256.4C253.238 0.0482491 251.432 2.84155 251.345 2.97331L235.99 27.925C234.97 29.6151 232.738 29.8594 232.723 29.8594L232.814 31.8406H242.73C245.988 31.8406 247.637 29.3539 247.702 29.2521L263.25 4.01421C264.28 2.34446 265.883 2.07375 266.549 2.03303H266.924L267 0.0518426C266.969 0.0518426 266.802 0.036271 266.543 0.0518426L266.547 0.0470513L266.549 0.0482491ZM237.675 28.9623L253.015 4.02619C253.087 3.92437 254.375 2.02943 256.4 2.02943H257.131C256.943 2.25462 256.761 2.49897 256.588 2.77447L241.289 27.598L241.249 27.659L241.218 27.7357C241.182 27.8231 240.258 29.8546 237.376 29.8546H236.99C237.235 29.5995 237.468 29.3036 237.67 28.9659L237.675 28.9611V28.9623ZM261.575 2.97451L246.048 28.1765C245.946 28.319 244.834 29.8666 242.724 29.8666H242.13C242.632 29.3096 242.901 28.8041 242.993 28.6005L258.257 3.83334C259.388 1.99589 261.352 2.04141 261.433 2.0462H262.265C262.021 2.31212 261.783 2.62355 261.57 2.9757H261.575V2.97451Z" fill="url(#paint2_linear_1801_15718)"></path><g opacity="0.53"><g opacity="0.25"><path d="M248.489 19.7598L249.149 20.8316L247.976 22.6949L247.336 21.6591L248.489 19.7598Z" fill="#AB26A0"></path></g><g opacity="0.25"><path d="M251.044 15.6191L251.704 16.6909L250.53 18.5543L249.875 17.5077L251.043 15.6191H251.044Z" fill="#AB26A0"></path></g><g opacity="0.25"><path d="M253.608 11.4648L254.268 12.5366L253.095 14.4L252.439 13.3534L253.607 11.4648H253.608Z" fill="#AB26A0"></path></g><g opacity="0.18"><path d="M245.929 15.6191L246.589 16.6862L245.415 18.5543L244.775 17.4921L245.929 15.6191Z" fill="#AB26A0"></path></g><g opacity="0.18"><path d="M248.483 11.4746L249.143 12.5464L247.97 14.4098L247.314 13.3631L248.482 11.4746H248.483Z" fill="#AB26A0"></path></g><g opacity="0.18"><path d="M251.05 7.31445L251.71 8.38624L250.536 10.2496L249.881 9.20775L251.049 7.31445H251.05Z" fill="#AB26A0"></path></g><g opacity="0.35"><path d="M251.043 23.9102L251.703 24.9772L250.529 26.8453L249.885 25.7891L251.043 23.9102Z" fill="#AB26A0"></path></g><g opacity="0.35"><path d="M253.602 19.7695L254.262 20.8365L253.089 22.6999L252.434 21.6581L253.601 19.7695H253.602Z" fill="#AB26A0"></path></g><g opacity="0.35"><path d="M256.167 15.6152L256.827 16.6822L255.653 18.5456L254.998 17.5038L256.166 15.6152H256.167Z" fill="#AB26A0"></path></g></g><defs><linearGradient id="paint0_linear_1801_15718" x1="106" y1="30.8451" x2="232.783" y2="30.8451" gradientUnits="userSpaceOnUse"><stop stop-color="#FEE191"></stop><stop offset="0.36" stop-color="#FEC780"></stop><stop offset="0.42" stop-color="#FDB676"></stop><stop offset="0.56" stop-color="#FD9763"></stop><stop offset="0.63" stop-color="#FD8C5D"></stop><stop offset="1" stop-color="#FF756F"></stop></linearGradient><linearGradient id="paint1_linear_1801_15718" x1="232.723" y1="15.9432" x2="266.997" y2="15.9432" gradientUnits="userSpaceOnUse"><stop stop-color="#F282A7"></stop><stop offset="0.22" stop-color="#E888B5"></stop><stop offset="0.48" stop-color="#CCB9FC"></stop><stop offset="0.75" stop-color="#C09BE6"></stop><stop offset="1" stop-color="#B377CB"></stop></linearGradient><linearGradient id="paint2_linear_1801_15718" x1="240.343" y1="24.9424" x2="268.038" y2="-1.46563" gradientUnits="userSpaceOnUse"><stop offset="0.06" stop-color="#FF756F"></stop><stop offset="0.23" stop-color="#FF8889"></stop><stop offset="0.48" stop-color="#FFADAA"></stop><stop offset="0.68" stop-color="#FED995"></stop><stop offset="1" stop-color="#FCC879"></stop></linearGradient></defs></svg>