<svg xmlns="http://www.w3.org/2000/svg" width="202" height="37" viewBox="0 0 202 37" fill="none"><path d="M17.6388 0.78125L21.5989 12.9693H34.4142L24.0464 20.502L28.0066 32.6901L17.6388 25.1574L7.27096 32.6901L11.2311 20.502L0.863302 12.9693H13.6786L17.6388 0.78125Z" fill="#EBB858"></path><path d="M59.2169 0.78125L63.177 12.9693H75.9924L65.6245 20.502L69.5847 32.6901L59.2169 25.1574L48.8491 32.6901L52.8092 20.502L42.4414 12.9693H55.2567L59.2169 0.78125Z" fill="#EBB858"></path><path d="M100.795 0.78125L104.755 12.9693H117.57L107.203 20.502L111.163 32.6901L100.795 25.1574L90.4272 32.6901L94.3874 20.502L84.0196 12.9693H96.8349L100.795 0.78125Z" fill="#EBB858"></path><path d="M142.373 0.78125L146.333 12.9693H159.149L148.781 20.502L152.741 32.6901L142.373 25.1574L132.005 32.6901L135.965 20.502L125.598 12.9693H138.413L142.373 0.78125Z" fill="#EBB858"></path><path d="M183.943 0.78125L187.904 12.9693H200.719L190.351 20.502L194.311 32.6901L183.943 25.1574L173.576 32.6901L177.536 20.502L167.168 12.9693H179.983L183.943 0.78125Z" fill="#EBB858"></path></svg>